<?xml version="1.0" ?><svg data-name="Layer 1" height="200" id="Layer_1" viewBox="0 0 200 200" width="200" xmlns="http://www.w3.org/2000/svg"><defs><style>.cls-1{fill:#8fcd60;}.cls-2{fill:#ceea59;}.cls-3{fill:#70bf56;}.cls-4{fill:#74c455;}</style></defs><title/><path class="cls-1" d="M21.46,103.78a81.25,81.25,0,1,0,81.25-81.25A81.25,81.25,0,0,0,21.46,103.78Z"/><path class="cls-2" d="M166.29,108.22a2.9,2.9,0,0,0-3.94-1c-10.66,7.58-20.92,15.85-29.87,25.41a114.18,114.18,0,0,0-21.41,31.46,91,91,0,0,0-5.34,15.5c-1.82-5.23-3.52-10.5-4.94-15.84a138.66,138.66,0,0,1,6.14-19c.15-.34.29-.7.43-1,.06-.14.13-.29.18-.43a.62.62,0,0,0,.08-.18c.34-.81.7-1.64,1.06-2.45.68-1.52,1.4-3.05,2.15-4.56,1.48-3,3-5.92,4.71-8.79s3.49-5.77,5.4-8.56c1-1.38,1.92-2.77,2.91-4.13.47-.65,1-1.28,1.42-1.91l.43-.56a1.14,1.14,0,0,0,.11-.14c.27-.36.54-.7.82-1a143.83,143.83,0,0,1,13.52-14.81c2.72-2.57,5.52-5,8.43-7.41,1.62-1.29,2.41-1.92,4.08-3.16s3.11-2.25,4.69-3.33a2.93,2.93,0,0,0,1-3.94,2.9,2.9,0,0,0-3.94-1,143.15,143.15,0,0,0-30.5,27.84,145.41,145.41,0,0,0-21.32,35.06C101,144,99.47,148,98.16,151.94a153.87,153.87,0,0,1-2-24.18c0-2.28,0-4.56,0-6.87a2.58,2.58,0,0,0,.54-1,39.67,39.67,0,0,1,5.86-12.47,76.92,76.92,0,0,1,9-10.75A230.73,230.73,0,0,1,135.3,75.9c4.42-3.43,9.4-7.12,14.07-10.6a3,3,0,0,0,1-3.94c-.77-1.19-2.64-2-3.94-1-8.86,6.58-17.72,13.16-26.14,20.32-8,6.77-15.81,14-21.91,22.57-.7,1-1.36,2-2,3,.13-3.54.29-7.1.48-10.62.2-3.31.45-6.47.85-9.62l.07-.14c.11-.22.22-.45.32-.67.24-.48.51-.95.78-1.42a26.81,26.81,0,0,1,1.8-2.69c.34-.47.18-.22.09-.13.18-.23.37-.47.55-.68l1-1.12c.74-.81,1.5-1.6,2.29-2.37,3.21-3.15,6.7-6,10.19-8.9s6.94-5.5,10.77-8.25,7.56-5.27,11.45-7.73q6.66-4.2,13.59-8a2.89,2.89,0,0,0,1-3.94,2.94,2.94,0,0,0-3.94-1,235.57,235.57,0,0,0-24.25,15.14,204.42,204.42,0,0,0-22.29,18l-.52.5c.69-2.22,1.48-4.4,2.36-6.56.43-1.06.9-2.15,1.47-3.41s1.19-2.5,1.8-3.74c1.26-2.48,2.59-4.91,4-7.32,2.81-4.81,5.84-9.47,8.94-14.09a2.9,2.9,0,0,0-1-3.94,2.94,2.94,0,0,0-3.93,1c-5.6,8.32-11,16.84-15.12,26A88,88,0,0,0,94,74.77c-.52,2-1,4.06-1.31,6.13A68.48,68.48,0,0,0,78.05,58.32a69.27,69.27,0,0,0-8-7,2.9,2.9,0,0,0-3.94,1,3,3,0,0,0,1,3.94l.45.34a1.13,1.13,0,0,1,.16.13l.7.55c.59.47,1.17,1,1.74,1.46,1.08.93,2.11,1.89,3.11,2.89s2,2.11,3,3.2l1.29,1.51.72.88c.13.15.23.29.36.45a.44.44,0,0,0,.09.11,64.47,64.47,0,0,1,4.83,7.3c.71,1.22,1.37,2.48,2,3.76.31.62.61,1.27.9,1.92.13.27.23.54.36.81,0,0,.25.63.31.73a65.44,65.44,0,0,1,3,9.44,2.71,2.71,0,0,0,1.15,1.6c-.32,4.55-.45,9.1-.58,13.65-.08,3.16-.17,6.32-.25,9.49A278.69,278.69,0,0,0,59.87,89.62Q54.67,85.67,49.3,82a2.89,2.89,0,0,0-3.93,1,3,3,0,0,0,1,3.94,273.55,273.55,0,0,1,34.75,28.42q4.58,4.43,9,9a3.07,3.07,0,0,0,.34.29c0,4.37.13,8.76.4,13.12-1-.84-1.94-1.65-3-2.44-3.38-2.61-7-4.94-10.54-7.3-7.63-5.09-15.36-10-23.15-14.9-4.35-2.73-8.73-5.45-13.1-8.16a2.91,2.91,0,0,0-3.94,1,2.94,2.94,0,0,0,1,3.94c7.64,4.75,15.29,9.49,22.88,14.34C68.43,129,75.83,133.71,83,138.8l1.32.95.36.27s.39.31.44.36q1.28,1,2.43,2.1c.77.74,1.48,1.53,2.18,2.32l.18.22c.14.2.28.39.43.57.34.49.64,1,.93,1.48a3.63,3.63,0,0,0,.52.64c.36,2.86.83,5.72,1.39,8.56.39,2,.84,4,1.33,5.93-7.25-5.43-15.93-8.86-23.73-13.42-10.1-5.92-19-13.61-29-19.69a68.12,68.12,0,0,0-18.18-8A2.88,2.88,0,1,0,22,126.66c1.41.36,2.77.76,4.14,1.25.63.21,1.26.44,1.87.68L29,129l.31.12.45.2a76.48,76.48,0,0,1,7.49,3.83c5,2.89,9.67,6.24,14.33,9.6s9.37,6.79,14.29,9.85,10.17,5.52,15.28,8.21a84.65,84.65,0,0,1,8.23,4.86c.67.47,1.33.93,2,1.42l.07.05s0,0,0,0,.3.23.45.36c.34.27.66.54,1,.83a37.37,37.37,0,0,1,3.48,3.41,2.15,2.15,0,0,0,.94.63c1.92,6.17,4.11,12.26,6.29,18.34a2.88,2.88,0,1,0,5.55-1.53c-.16-.45-.32-.88-.46-1.33a2.47,2.47,0,0,0,1.54-1.8,88.13,88.13,0,0,1,13.61-33.4,133.41,133.41,0,0,1,24.79-27.57c5.48-4.75,10.77-8.77,16.64-13a2.84,2.84,0,0,0,1-3.87Z"/><path class="cls-3" d="M141.41,14.55A12.88,12.88,0,0,0,137,13.29a.87.87,0,0,0-.9.43c-.19-.16-.41-.3-.59-.45A20.32,20.32,0,0,0,133,11.69a31.6,31.6,0,0,0-10.5-3.2A150.92,150.92,0,0,0,98.29,7.22c-16.36.27-32.9,3-47.73,10.15A83.74,83.74,0,0,0,17.83,45.9a82.13,82.13,0,0,0-14,41.67,84.48,84.48,0,0,0,10.46,45.24l.05.09a7.16,7.16,0,0,0,1.93,3.62,3.73,3.73,0,0,0,.52.46c.16.27.34.54.5.79a1.45,1.45,0,0,0,.79.54c7.86,2,16,.69,23.62-1.69a105.3,105.3,0,0,0,20.62-8.7c6.15-3.5,12-8.12,15.78-14.18a22.09,22.09,0,0,0,3.36-10.86c.18-3.83-.27-7.69.26-11.5a33.77,33.77,0,0,1,22.7-27c7.12-2.27,14.81-1.23,21.91-3.63A36.19,36.19,0,0,0,141.93,50.2a32.77,32.77,0,0,0,8-18.28c.6-6.84-2.12-14.22-8.57-17.37Z"/><path class="cls-4" d="M194.4,64c-2.46-14-8-28-17.9-38.41C167,15.67,153.6,9.18,139.68,10.09c-14.14,1-29.3,7.52-37,19.87-3.9,6.22-5.43,13.69-5.43,21a75.5,75.5,0,0,0,3.54,21.91,54.88,54.88,0,0,0,10.46,19.36,79.57,79.57,0,0,0,14.89,13.37c5.3,3.83,10.92,7.16,16.53,10.5,1.53.92,3,1.85,4.5,2.86l1,.75.41.34c.65.54,1.28,1.1,1.87,1.69s1,1.06,1.51,1.62c.24.27.47.56.7.85.09.1.16.23.25.34a32.66,32.66,0,0,1,2.47,4c.34.64.64,1.31,1,2,0,.05,0,.1.07.16.18.43.34.86.49,1.31a39.45,39.45,0,0,1,1.33,4.58c.16.74.3,1.48.45,2.21,0,.26.09.53.12.78v-.11a.44.44,0,0,0,0,.16,1.45,1.45,0,0,1,0,.29,1.77,1.77,0,0,1,0,.23v0a47.5,47.5,0,0,1,.29,4.76,48.21,48.21,0,0,1-.25,5.38c0,.45-.09.88-.14,1.33a.9.9,0,0,0,0,.21s0,.09,0,.15c-.14.93-.29,1.87-.47,2.79a85.44,85.44,0,0,1-2.93,11c-1.16,3.5-2.5,6.95-3.9,10.37a4.86,4.86,0,0,0,.49,3.74,4.84,4.84,0,0,0,6.63,1.74,5.71,5.71,0,0,0,2.23-2.89l.38-.92a4,4,0,0,0,.29-.29,133,133,0,0,0,22.05-33.38,137.28,137.28,0,0,0,11.45-38.52A133.36,133.36,0,0,0,194.4,64Z"/></svg>