<?xml version="1.0" ?><svg enable-background="new 0 0 64 64" id="Filled_Outline_1_" version="1.1" viewBox="0 0 64 64" xml:space="preserve" xmlns="http://www.w3.org/2000/svg" xmlns:xlink="http://www.w3.org/1999/xlink"><title/><desc/><g><g><path d="M3,31C3,19.29,7.67,9.56,17.02,7.44C17.01,7.29,17,7.15,17,7c0-2.21,1.79-4,4-4s4,1.79,4,4    c0,0.15-0.01,0.29-0.02,0.44C34.33,9.56,39,19.29,39,31v6c0,13.266-6,24-18,24S3,50.266,3,37V31z" fill="#8C6239"/><path d="M28.19,59.46c0.249-0.118,0.484-0.258,0.724-0.389c0.005,0.003,0.01,0.006,0.016,0.009    C28.69,59.21,28.44,59.34,28.19,59.46z" fill="#754C24"/><path d="M61,43c0,12-10.73,18-24,18V49.11C34.33,56.22,29,61,21,61c-7.92,0-13.22-4.67-15.91-11.65    C8.08,54.06,12.72,57,19,57h0.1c-1.97-3.2-3.1-6.97-3.1-11c0-10.98,8.42-19.99,19.16-20.91C26.08,26.01,19,33.68,19,43    c0,5.17,2.18,9.82,5.66,13.08C32.89,53.23,37,43.99,37,33v-6c0-4.53-0.7-8.76-2.1-12.37c1.84,2.89,3.05,6.45,3.65,10.4    C51.09,25.48,61,31.47,61,43z" fill="#754C24"/><circle cx="37" cy="43" fill="#F2E880" r="18"/><path d="M37,25c-9.94,0-18,8.06-18,18s8.06,18,18,18s18-8.06,18-18S46.94,25,37,25z M37,55c-6.63,0-12-5.37-12-12    s5.37-12,12-12s12,5.37,12,12S43.63,55,37,55z M37.959,36.361L37.959,36.361c0.995-0.663,2.346-0.141,2.636,1.019l0.153,0.614    c0.155,0.619,0.638,1.103,1.258,1.258l0.614,0.153c1.16,0.29,1.682,1.641,1.019,2.636v0c-0.387,0.581-0.387,1.337,0,1.918v0    c0.663,0.995,0.141,2.346-1.019,2.636l-0.614,0.153c-0.619,0.155-1.103,0.638-1.258,1.258l-0.153,0.614    c-0.29,1.16-1.641,1.682-2.636,1.019h0c-0.581-0.387-1.337-0.387-1.918,0h0c-0.995,0.663-2.346,0.141-2.636-1.019l-0.153-0.614    c-0.155-0.619-0.638-1.103-1.258-1.258l-0.614-0.153c-1.16-0.29-1.682-1.641-1.019-2.636l0,0c0.387-0.581,0.387-1.337,0-1.918l0,0    c-0.663-0.995-0.141-2.346,1.019-2.636l0.614-0.153c0.619-0.155,1.103-0.638,1.258-1.258l0.153-0.614    c0.29-1.16,1.641-1.682,2.636-1.019h0C36.622,36.748,37.378,36.748,37.959,36.361z" fill="#ADCC39"/><path d="M55,43c0,9.94-8.06,18-18,18c-7.85,0-14.53-5.03-16.99-12.05C23.22,53.8,28.74,57,35,57    c9.94,0,18-8.06,18-18c0-2.09-0.36-4.09-1.01-5.95C53.89,35.9,55,39.32,55,43z" fill="#97B332"/></g><path d="M24.777,59.589l0.445,1.95C23.885,61.845,22.464,62,21,62C9.458,62,2,52.187,2,37v-6   C2,18.315,7.346,9.084,16.011,6.664C16.185,4.063,18.356,2,21,2s4.814,2.063,4.988,4.663c6.376,1.77,10.957,7.098,12.946,15.096   l-1.941,0.482C35.115,14.688,30.771,9.778,24.76,8.415c-0.479-0.108-0.81-0.55-0.777-1.04C23.992,7.23,24,7.119,24,7   c0-1.654-1.346-3-3-3s-3,1.346-3,3c0,0.119,0.008,0.23,0.016,0.349c0.032,0.491-0.296,0.958-0.775,1.066C8.95,10.295,4,18.738,4,31   v6c0,11.119,4.466,23,17,23C22.314,60,23.586,59.862,24.777,59.589z M62,43c0,11.542-9.813,19-25,19c-10.477,0-19-8.523-19-19   s8.523-19,19-19C52.187,24,62,31.458,62,43z M37,60c9.374,0,17-7.626,17-17s-7.626-17-17-17s-17,7.626-17,17S27.626,60,37,60z    M60,43c0-8.198-5.083-12.943-11.71-15.246C52.957,31.219,56,36.754,56,43s-3.043,11.781-7.71,15.246   C54.917,55.943,60,51.198,60,43z M44.472,42.596c-0.164,0.246-0.164,0.563,0,0.808c0.491,0.738,0.595,1.672,0.274,2.499   c-0.319,0.826-1.023,1.448-1.884,1.663l-0.613,0.154c-0.262,0.065-0.465,0.269-0.531,0.531l-0.153,0.613   c-0.215,0.86-0.836,1.564-1.662,1.884c-0.318,0.123-0.651,0.183-0.983,0.183c-0.532,0-1.061-0.155-1.515-0.458   c-0.246-0.163-0.563-0.163-0.809,0c-0.737,0.492-1.67,0.595-2.498,0.275c-0.826-0.32-1.447-1.024-1.662-1.883l-0.153-0.614   c-0.066-0.261-0.27-0.464-0.53-0.53l-0.615-0.154c-0.859-0.214-1.563-0.836-1.883-1.663c-0.32-0.827-0.217-1.761,0.274-2.498   c0.164-0.246,0.164-0.563,0-0.808c-0.491-0.738-0.595-1.672-0.274-2.499c0.319-0.826,1.023-1.448,1.884-1.663l0.613-0.154   c0.262-0.065,0.465-0.269,0.531-0.531l0.153-0.613c0.215-0.86,0.836-1.564,1.662-1.884c0.828-0.319,1.761-0.217,2.498,0.275   c0.246,0.163,0.563,0.163,0.809,0c0.738-0.492,1.669-0.594,2.498-0.275c0.826,0.32,1.447,1.024,1.662,1.883l0.153,0.614   c0.066,0.261,0.27,0.464,0.53,0.53l0.615,0.154c0.859,0.214,1.563,0.836,1.883,1.663C45.066,40.924,44.963,41.858,44.472,42.596z    M42.808,41.486c0.133-0.199,0.16-0.442,0.073-0.667s-0.27-0.386-0.503-0.444l-0.615-0.154c-0.979-0.245-1.739-1.005-1.984-1.985   l-0.153-0.615c-0.059-0.232-0.221-0.416-0.444-0.502c-0.225-0.087-0.467-0.06-0.667,0.073c-0.92,0.613-2.107,0.613-3.027,0   c-0.201-0.133-0.442-0.162-0.667-0.073c-0.224,0.086-0.386,0.27-0.444,0.503l-0.153,0.613c-0.245,0.98-1.006,1.741-1.985,1.986   l-0.613,0.154c-0.234,0.058-0.417,0.22-0.504,0.444s-0.06,0.467,0.073,0.667c0.614,0.919,0.614,2.108,0,3.028   c-0.133,0.199-0.16,0.442-0.073,0.667s0.27,0.386,0.503,0.444l0.615,0.154c0.979,0.245,1.739,1.005,1.984,1.985l0.153,0.615   c0.059,0.232,0.221,0.416,0.444,0.502c0.225,0.086,0.467,0.06,0.667-0.073c0.46-0.307,0.987-0.459,1.514-0.459   c0.527,0,1.054,0.153,1.514,0.459c0.2,0.132,0.441,0.159,0.667,0.073c0.224-0.086,0.386-0.27,0.444-0.503l0.153-0.613   c0.245-0.98,1.006-1.741,1.985-1.986l0.613-0.154c0.234-0.058,0.417-0.22,0.504-0.444s0.06-0.467-0.073-0.667   C42.193,43.594,42.193,42.406,42.808,41.486z M38,31c0-1.105-0.448-2-1-2s-1,0.895-1,2c0,1.105,0.448,2,1,2S38,32.105,38,31z    M37,53c-0.552,0-1,0.895-1,2s0.448,2,1,2s1-0.895,1-2S37.552,53,37,53z M26.248,37.578c-1.024-0.414-2.022-0.334-2.229,0.178   s0.456,1.263,1.48,1.676c1.024,0.414,2.022,0.334,2.229-0.178C27.935,38.742,27.273,37.991,26.248,37.578z M46.272,46.746   c-0.207,0.512,0.456,1.263,1.48,1.676s2.022,0.334,2.229-0.178c0.207-0.512-0.456-1.263-1.48-1.676   C47.477,46.154,46.479,46.234,46.272,46.746z M29.222,33.808c-0.781-0.781-1.731-1.098-2.121-0.707   c-0.391,0.391-0.074,1.34,0.707,2.121c0.781,0.781,1.731,1.098,2.121,0.707S30.003,34.589,29.222,33.808z M44.071,50.071   c-0.391,0.391-0.074,1.34,0.707,2.121c0.781,0.781,1.731,1.098,2.121,0.707c0.391-0.391,0.074-1.34-0.707-2.121   C45.411,49.997,44.462,49.681,44.071,50.071z M25,42c-1.105,0-2,0.448-2,1s0.895,1,2,1s2-0.448,2-1S26.105,42,25,42z M47,43   c0,0.552,0.895,1,2,1s2-0.448,2-1s-0.895-1-2-1S47,42.448,47,43z M27.808,50.778c-0.781,0.781-1.098,1.731-0.707,2.121   c0.391,0.391,1.34,0.074,2.121-0.707c0.781-0.781,1.098-1.731,0.707-2.121S28.589,49.997,27.808,50.778z M44.071,35.929   c0.391,0.391,1.34,0.074,2.121-0.707c0.781-0.781,1.098-1.731,0.707-2.121c-0.391-0.391-1.34-0.074-2.121,0.707   C43.997,34.589,43.681,35.538,44.071,35.929z M40.768,54.437c0.432,1.017,1.194,1.666,1.702,1.45   c0.508-0.216,0.571-1.215,0.139-2.232c-0.432-1.017-1.194-1.666-1.702-1.45C40.399,52.421,40.337,53.42,40.768,54.437z    M33.093,33.795c0.508-0.216,0.571-1.215,0.139-2.232c-0.432-1.017-1.194-1.666-1.702-1.45c-0.508,0.216-0.571,1.215-0.139,2.232   C31.822,33.361,32.584,34.011,33.093,33.795z M46.272,39.254c0.207,0.512,1.205,0.592,2.229,0.178   c1.024-0.414,1.687-1.164,1.48-1.676c-0.207-0.512-1.205-0.592-2.229-0.178S46.065,38.742,46.272,39.254z M42.609,32.345   c0.432-1.017,0.369-2.016-0.139-2.232c-0.508-0.216-1.27,0.434-1.702,1.45c-0.432,1.017-0.369,2.016,0.139,2.232   C41.416,34.011,42.178,33.361,42.609,32.345z M27.728,46.746c-0.207-0.512-1.205-0.592-2.229-0.178   c-1.024,0.414-1.687,1.164-1.48,1.676s1.205,0.592,2.229,0.178C27.273,48.009,27.935,47.258,27.728,46.746z M31.391,53.655   c-0.432,1.017-0.369,2.016,0.139,2.232c0.508,0.216,1.27-0.434,1.702-1.45s0.369-2.016-0.139-2.232   C32.584,51.989,31.822,52.639,31.391,53.655z" fill="#28284B"/></g></svg>